<svg width="43" height="39" viewBox="0 0 43 39" fill="none" xmlns="http://www.w3.org/2000/svg">
<path fill-rule="evenodd" clip-rule="evenodd" d="M41.7112 17.8126L32.9942 2.69894C32.3671 1.57011 31.1128 0.817566 29.7959 0.817566H12.4245C11.1076 0.817566 9.85334 1.5074 9.22621 2.69894L0.571905 17.8126C-0.0552184 18.9414 -0.0552184 20.3211 0.571905 21.5126L9.28892 36.6263C9.91605 37.7551 11.1703 38.5077 12.4873 38.5077H29.8586C31.1755 38.5077 32.4298 37.8179 33.0569 36.6263L41.7112 21.5126C42.3383 20.3211 42.3383 18.9414 41.7112 17.8126ZM36.8197 21.0737L30.1721 32.6127C29.6704 33.4907 28.7298 34.0551 27.7264 34.0551H14.4941C13.4907 34.0551 12.55 33.4907 12.0483 32.6127L5.46347 21.0737C4.96177 20.1957 4.96177 19.1296 5.46347 18.2516L12.0483 6.71253C12.55 5.83455 13.4907 5.27014 14.4941 5.27014H27.7264C28.7298 5.27014 29.6704 5.83455 30.1721 6.71253L36.8197 18.2516C37.3214 19.1296 37.3214 20.1957 36.8197 21.0737Z" fill="#888888"/>
<path d="M15.4009 17.0077C15.7874 16.6132 15.7808 15.98 15.3862 15.5936L14.7051 14.9266C14.3105 14.5402 13.6774 14.5468 13.291 14.9414L9.28947 19.0272C8.90303 19.4218 8.90964 20.0549 9.30422 20.4414L13.3901 24.4429C13.7847 24.8293 14.4178 24.8227 14.8043 24.4281L15.4713 23.747C15.8577 23.3524 15.8511 22.7193 15.4565 22.3329L13.4806 20.3978C13.086 20.0113 13.0794 19.3782 13.4658 18.9836L15.4009 17.0077Z" fill="#0DA0A1"/>
<path d="M26.8978 15.5936C26.5033 15.98 26.4966 16.6132 26.8831 17.0077L28.8182 18.9836C29.2046 19.3782 29.198 20.0113 28.8034 20.3978L26.8275 22.3329C26.4329 22.7193 26.4263 23.3524 26.8127 23.747L27.4797 24.4281C27.8662 24.8227 28.4993 24.8293 28.8939 24.4429L32.9798 20.4414C33.3744 20.0549 33.381 19.4218 32.9945 19.0272L28.993 14.9414C28.6066 14.5468 27.9735 14.5402 27.5789 14.9266L26.8978 15.5936Z" fill="#0DA0A1"/>
<path d="M18.5754 29.5446C18.0347 29.4309 17.6886 28.9003 17.8024 28.3596L21.5904 10.3572C21.7042 9.81653 22.2348 9.47045 22.7754 9.58422L23.7088 9.78062C24.2495 9.89439 24.5956 10.4249 24.4818 10.9656L20.6938 28.968C20.58 29.5087 20.0495 29.8548 19.5088 29.741L18.5754 29.5446Z" fill="#0DA0A1"/>
</svg>
