<svg width="43" height="39" viewBox="0 0 43 39" fill="none" xmlns="http://www.w3.org/2000/svg">
<path fill-rule="evenodd" clip-rule="evenodd" d="M42.2093 17.8126L33.4922 2.69894C32.8651 1.57011 31.6109 0.817566 30.2939 0.817566H12.9226C11.6056 0.817566 10.3514 1.5074 9.72426 2.69894L1.06995 17.8126C0.442828 18.9414 0.442828 20.3211 1.06995 21.5126L9.78697 36.6263C10.4141 37.7551 11.6683 38.5077 12.9853 38.5077H30.3566C31.6736 38.5077 32.9278 37.8179 33.555 36.6263L42.2093 21.5126C42.8364 20.3211 42.8364 18.9414 42.2093 17.8126ZM37.3177 21.0737L30.6702 32.6127C30.1685 33.4907 29.2278 34.0551 28.2244 34.0551H14.9921C13.9887 34.0551 13.048 33.4907 12.5463 32.6127L5.96152 21.0737C5.45982 20.1957 5.45982 19.1296 5.96152 18.2516L12.5463 6.71253C13.048 5.83455 13.9887 5.27014 14.9921 5.27014H28.2244C29.2278 5.27014 30.1685 5.83455 30.6702 6.71253L37.3177 18.2516C37.8194 19.1296 37.8194 20.1957 37.3177 21.0737Z" fill="white"/>
<path d="M15.899 17.0077C16.2854 16.6132 16.2788 15.98 15.8842 15.5936L15.2032 14.9266C14.8086 14.5402 14.1755 14.5468 13.789 14.9414L9.78751 19.0272C9.40108 19.4218 9.40768 20.0549 9.80226 20.4414L13.8882 24.4429C14.2827 24.8293 14.9159 24.8227 15.3023 24.4281L15.9693 23.747C16.3557 23.3524 16.3491 22.7193 15.9545 22.3329L13.9786 20.3978C13.5841 20.0113 13.5775 19.3782 13.9639 18.9836L15.899 17.0077Z" fill="white"/>
<path d="M27.3959 15.5936C27.0013 15.98 26.9947 16.6132 27.3811 17.0077L29.3162 18.9836C29.7026 19.3782 29.696 20.0113 29.3015 20.3978L27.3256 22.3329C26.931 22.7193 26.9244 23.3524 27.3108 23.747L27.9778 24.4281C28.3642 24.8227 28.9973 24.8293 29.3919 24.4429L33.4778 20.4414C33.8724 20.0549 33.879 19.4218 33.4926 19.0272L29.491 14.9414C29.1046 14.5468 28.4715 14.5402 28.0769 14.9266L27.3959 15.5936Z" fill="white"/>
<path d="M19.0734 29.5446C18.5328 29.4309 18.1867 28.9003 18.3004 28.3596L22.0885 10.3572C22.2023 9.81653 22.7328 9.47045 23.2735 9.58422L24.2069 9.78062C24.7476 9.89439 25.0936 10.4249 24.9799 10.9656L21.1918 28.968C21.0781 29.5087 20.5475 29.8548 20.0068 29.741L19.0734 29.5446Z" fill="white"/>
</svg>
